<?xml version="1.0" standalone="no"?><!DOCTYPE svg PUBLIC "-//W3C//DTD SVG 1.1//EN" "http://www.w3.org/Graphics/SVG/1.1/DTD/svg11.dtd"><svg t="1603196283507" class="icon" viewBox="0 0 1024 1024" version="1.1" xmlns="http://www.w3.org/2000/svg" p-id="12173" xmlns:xlink="http://www.w3.org/1999/xlink" width="200" height="200"><defs><style type="text/css"></style></defs><path d="M238.933333 170.666667h170.666667a68.266667 68.266667 0 0 1 68.266667 68.266666v170.666667a68.266667 68.266667 0 0 1-68.266667 68.266667H238.933333a68.266667 68.266667 0 0 1-68.266666-68.266667V238.933333a68.266667 68.266667 0 0 1 68.266666-68.266666z m0 51.2a17.066667 17.066667 0 0 0-17.066666 17.066666v170.666667a17.066667 17.066667 0 0 0 17.066666 17.066667h170.666667a17.066667 17.066667 0 0 0 17.066667-17.066667V238.933333a17.066667 17.066667 0 0 0-17.066667-17.066666H238.933333zM238.933333 546.133333h170.666667a68.266667 68.266667 0 0 1 68.266667 68.266667v170.666667a68.266667 68.266667 0 0 1-68.266667 68.266666H238.933333a68.266667 68.266667 0 0 1-68.266666-68.266666v-170.666667a68.266667 68.266667 0 0 1 68.266666-68.266667z m0 51.2a17.066667 17.066667 0 0 0-17.066666 17.066667v170.666667a17.066667 17.066667 0 0 0 17.066666 17.066666h170.666667a17.066667 17.066667 0 0 0 17.066667-17.066666v-170.666667a17.066667 17.066667 0 0 0-17.066667-17.066667H238.933333zM614.4 546.133333h170.666667a68.266667 68.266667 0 0 1 68.266666 68.266667v170.666667a68.266667 68.266667 0 0 1-68.266666 68.266666h-170.666667a68.266667 68.266667 0 0 1-68.266667-68.266666v-170.666667a68.266667 68.266667 0 0 1 68.266667-68.266667z m0 51.2a17.066667 17.066667 0 0 0-17.066667 17.066667v170.666667a17.066667 17.066667 0 0 0 17.066667 17.066666h170.666667a17.066667 17.066667 0 0 0 17.066666-17.066666v-170.666667a17.066667 17.066667 0 0 0-17.066666-17.066667h-170.666667zM699.733333 170.666667a153.6 153.6 0 1 1 0 307.2H614.4a68.266667 68.266667 0 0 1-68.266667-68.266667V324.266667A153.6 153.6 0 0 1 699.733333 170.666667z m0 51.2a102.4 102.4 0 0 0-102.4 102.4V409.6a17.066667 17.066667 0 0 0 17.066667 17.066667h85.333333a102.4 102.4 0 0 0 0-204.8z" fill="#707070" p-id="12174"></path></svg>